<svg width="176" height="40" viewBox="0 0 176 40" fill="none" xmlns="http://www.w3.org/2000/svg">
<g clip-path="url(#clip0_109_119306)">
<rect x="0.5" width="40" height="40" rx="20" fill="url(#paint0_linear_109_119306)"/>
<g filter="url(#filter0_dd_109_119306)">
<path fill-rule="evenodd" clip-rule="evenodd" d="M11.832 11.3779C11.832 10.9819 12.1531 10.6608 12.5491 10.6608H20.6624V28.3215H12.5491C12.1531 28.3215 11.832 28.0005 11.832 27.6044V11.3779ZM30.8513 19.4913H30.8531V27.6046C30.8531 28.0006 30.532 28.3217 30.1359 28.3217H22.0227V19.4914H22.021V10.661C26.8978 10.661 30.8513 14.6145 30.8513 19.4913Z" fill="url(#paint1_linear_109_119306)"/>
</g>
</g>
<rect x="1" y="0.5" width="39" height="39" rx="19.5" stroke="url(#paint2_linear_109_119306)"/>
<path d="M53.0007 26L56.6547 14.264H59.8227L63.4767 26H60.6687L59.1567 20.06C59.0127 19.472 58.8567 18.848 58.6887 18.188C58.5207 17.528 58.3647 16.892 58.2207 16.28H58.1487C58.0047 16.892 57.8547 17.528 57.6987 18.188C57.5427 18.848 57.3867 19.472 57.2307 20.06L55.7007 26H53.0007ZM55.4127 23.21V21.14H61.0287V23.21H55.4127ZM69.4276 26.216C68.7076 26.216 68.0776 26.114 67.5376 25.91C67.0096 25.694 66.5656 25.388 66.2056 24.992C65.8576 24.584 65.5936 24.092 65.4136 23.516C65.2336 22.928 65.1436 22.25 65.1436 21.482V14.264H67.7896V21.752C67.7896 22.22 67.8496 22.616 67.9696 22.94C68.0896 23.264 68.2696 23.51 68.5096 23.678C68.7496 23.846 69.0556 23.93 69.4276 23.93C69.7996 23.93 70.1056 23.846 70.3456 23.678C70.5976 23.51 70.7836 23.264 70.9036 22.94C71.0236 22.616 71.0836 22.22 71.0836 21.752V14.264H73.6396V21.482C73.6396 22.25 73.5556 22.928 73.3876 23.516C73.2196 24.092 72.9556 24.584 72.5956 24.992C72.2476 25.388 71.8096 25.694 71.2816 25.91C70.7536 26.114 70.1356 26.216 69.4276 26.216ZM79.2126 26V16.496H75.7026V14.264H85.3866V16.496H81.8766V26H79.2126ZM91.6976 26.216C90.7616 26.216 89.9396 25.982 89.2316 25.514C88.5236 25.046 87.9716 24.362 87.5756 23.462C87.1796 22.55 86.9816 21.422 86.9816 20.078C86.9816 18.77 87.1796 17.672 87.5756 16.784C87.9716 15.884 88.5236 15.206 89.2316 14.75C89.9396 14.282 90.7616 14.048 91.6976 14.048C92.6336 14.048 93.4556 14.282 94.1636 14.75C94.8716 15.206 95.4236 15.884 95.8196 16.784C96.2156 17.672 96.4136 18.77 96.4136 20.078C96.4136 21.422 96.2156 22.55 95.8196 23.462C95.4236 24.362 94.8716 25.046 94.1636 25.514C93.4556 25.982 92.6336 26.216 91.6976 26.216ZM91.6976 23.93C92.1056 23.93 92.4596 23.786 92.7596 23.498C93.0596 23.198 93.2876 22.766 93.4436 22.202C93.6116 21.626 93.6956 20.918 93.6956 20.078C93.6956 19.262 93.6116 18.578 93.4436 18.026C93.2876 17.474 93.0596 17.054 92.7596 16.766C92.4596 16.478 92.1056 16.334 91.6976 16.334C91.2896 16.334 90.9356 16.478 90.6356 16.766C90.3356 17.054 90.1016 17.474 89.9336 18.026C89.7776 18.578 89.6996 19.262 89.6996 20.078C89.6996 20.918 89.7776 21.626 89.9336 22.202C90.1016 22.766 90.3356 23.198 90.6356 23.498C90.9356 23.786 91.2896 23.93 91.6976 23.93ZM98.4945 26V14.264H101.267L102.419 18.422L102.815 20.042H102.887L103.283 18.422L104.435 14.264H107.207V26H104.975V22.364C104.975 22.04 104.987 21.638 105.011 21.158C105.035 20.666 105.065 20.156 105.101 19.628C105.137 19.1 105.173 18.596 105.209 18.116C105.257 17.636 105.293 17.24 105.317 16.928H105.263L104.363 20.06L103.463 22.886H102.167L101.249 20.06L100.403 16.928H100.349C100.373 17.24 100.403 17.636 100.439 18.116C100.487 18.596 100.529 19.1 100.565 19.628C100.601 20.156 100.631 20.666 100.655 21.158C100.679 21.638 100.691 22.04 100.691 22.364V26H98.4945ZM108.766 26L112.42 14.264H115.588L119.242 26H116.434L114.922 20.06C114.778 19.472 114.622 18.848 114.454 18.188C114.286 17.528 114.13 16.892 113.986 16.28H113.914C113.77 16.892 113.62 17.528 113.464 18.188C113.308 18.848 113.152 19.472 112.996 20.06L111.466 26H108.766ZM111.178 23.21V21.14H116.794V23.21H111.178ZM123.824 26V16.496H120.314V14.264H129.998V16.496H126.488V26H123.824ZM132.565 26V14.264H140.341V16.496H135.229V18.854H139.567V21.068H135.229V23.768H140.521V26H132.565ZM143.322 26V14.264H147.48C148.308 14.264 149.064 14.378 149.748 14.606C150.432 14.822 150.978 15.2 151.386 15.74C151.806 16.268 152.016 16.994 152.016 17.918C152.016 18.818 151.806 19.55 151.386 20.114C150.978 20.678 150.432 21.098 149.748 21.374C149.064 21.638 148.308 21.77 147.48 21.77H145.968V26H143.322ZM145.968 19.664H147.264C147.96 19.664 148.488 19.52 148.848 19.232C149.22 18.932 149.406 18.494 149.406 17.918C149.406 17.342 149.22 16.94 148.848 16.712C148.488 16.484 147.96 16.37 147.264 16.37H145.968V19.664ZM146.994 21.086L148.83 19.376L152.574 26H149.604L146.994 21.086ZM154.475 26V14.264H158.633C159.461 14.264 160.217 14.378 160.901 14.606C161.585 14.822 162.131 15.2 162.539 15.74C162.959 16.268 163.169 16.994 163.169 17.918C163.169 18.818 162.959 19.55 162.539 20.114C162.131 20.678 161.585 21.098 160.901 21.374C160.217 21.638 159.461 21.77 158.633 21.77H157.121V26H154.475ZM157.121 19.664H158.417C159.113 19.664 159.641 19.52 160.001 19.232C160.373 18.932 160.559 18.494 160.559 17.918C160.559 17.342 160.373 16.94 160.001 16.712C159.641 16.484 159.113 16.37 158.417 16.37H157.121V19.664ZM158.147 21.086L159.983 19.376L163.727 26H160.757L158.147 21.086ZM164.53 26L168.184 14.264H171.352L175.006 26H172.198L170.686 20.06C170.542 19.472 170.386 18.848 170.218 18.188C170.05 17.528 169.894 16.892 169.75 16.28H169.678C169.534 16.892 169.384 17.528 169.228 18.188C169.072 18.848 168.916 19.472 168.76 20.06L167.23 26H164.53ZM166.942 23.21V21.14H172.558V23.21H166.942Z" fill="#0C23B3"/>
<defs>
<filter id="filter0_dd_109_119306" x="-21.418" y="-21.7142" width="85.521" height="84.1608" filterUnits="userSpaceOnUse" color-interpolation-filters="sRGB">
<feFlood flood-opacity="0" result="BackgroundImageFix"/>
<feColorMatrix in="SourceAlpha" type="matrix" values="0 0 0 0 0 0 0 0 0 0 0 0 0 0 0 0 0 0 127 0" result="hardAlpha"/>
<feOffset dy="0.875"/>
<feGaussianBlur stdDeviation="16.625"/>
<feColorMatrix type="matrix" values="0 0 0 0 0.141176 0 0 0 0 0 0 0 0 0 1 0 0 0 0.2 0"/>
<feBlend mode="normal" in2="BackgroundImageFix" result="effect1_dropShadow_109_119306"/>
<feColorMatrix in="SourceAlpha" type="matrix" values="0 0 0 0 0 0 0 0 0 0 0 0 0 0 0 0 0 0 127 0" result="hardAlpha"/>
<feOffset dy="0.875"/>
<feGaussianBlur stdDeviation="1.3125"/>
<feColorMatrix type="matrix" values="0 0 0 0 0.141176 0 0 0 0 0 0 0 0 0 1 0 0 0 0.2 0"/>
<feBlend mode="normal" in2="effect1_dropShadow_109_119306" result="effect2_dropShadow_109_119306"/>
<feBlend mode="normal" in="SourceGraphic" in2="effect2_dropShadow_109_119306" result="shape"/>
</filter>
<linearGradient id="paint0_linear_109_119306" x1="20.5" y1="0" x2="20.5" y2="40" gradientUnits="userSpaceOnUse">
<stop stop-color="#FDFDFF"/>
<stop offset="1" stop-color="#C8CCFF"/>
</linearGradient>
<linearGradient id="paint1_linear_109_119306" x1="21.3425" y1="10.6608" x2="21.3425" y2="28.3217" gradientUnits="userSpaceOnUse">
<stop stop-color="#27229F" stop-opacity="0.47"/>
<stop offset="1" stop-color="#0C23B3"/>
</linearGradient>
<linearGradient id="paint2_linear_109_119306" x1="20.5" y1="0" x2="20.5" y2="40" gradientUnits="userSpaceOnUse">
<stop stop-color="#7E79F0" stop-opacity="0.47"/>
<stop offset="1" stop-color="#7E79F0"/>
</linearGradient>
<clipPath id="clip0_109_119306">
<rect x="0.5" width="40" height="40" rx="20" fill="white"/>
</clipPath>
</defs>
</svg>
